<svg width="48" height="48" viewBox="0 0 48 48" fill="none" xmlns="http://www.w3.org/2000/svg">
<path d="M46 25.9585H2C0.895996 25.9585 0 25.0625 0 23.9585C0 22.8545 0.895996 21.9585 2 21.9585H46C47.104 21.9585 48 22.8545 48 23.9585C48 25.0625 47.104 25.9585 46 25.9585Z" fill="#FFFDFD"/>
<path d="M46 10.625H2C0.895996 10.625 0 9.729 0 8.625C0 7.521 0.895996 6.625 2 6.625H46C47.104 6.625 48 7.521 48 8.625C48 9.729 47.104 10.625 46 10.625Z" fill="#FFFDFD"/>
<path d="M46 41.2915H2C0.895996 41.2915 0 40.3955 0 39.2915C0 38.1875 0.895996 37.2915 2 37.2915H46C47.104 37.2915 48 38.1875 48 39.2915C48 40.3955 47.104 41.2915 46 41.2915Z" fill="#FFFDFD"/>
</svg>
