<svg width="35" height="35" viewBox="0 0 35 35" fill="none" xmlns="http://www.w3.org/2000/svg">
<path d="M25.3411 0H9.65853C4.33282 0 0 4.33303 0 9.65873V25.3413C0 30.6672 4.33282 35 9.65853 35H25.3411C30.6672 35 35 30.667 35 25.3413V9.65873C35.0002 4.33303 30.6672 0 25.3411 0ZM31.8948 25.3413C31.8948 28.9549 28.9549 31.8946 25.3413 31.8946H9.65853C6.04512 31.8948 3.10537 28.9549 3.10537 25.3413V9.65873C3.10537 6.04533 6.04512 3.10537 9.65853 3.10537H25.3411C28.9547 3.10537 31.8946 6.04533 31.8946 9.65873V25.3413H31.8948Z" fill="white"/>
<path d="M17.5001 8.48181C12.5271 8.48181 8.48145 12.5275 8.48145 17.5004C8.48145 22.4732 12.5271 26.5186 17.5001 26.5186C22.473 26.5186 26.5187 22.4732 26.5187 17.5004C26.5187 12.5275 22.473 8.48181 17.5001 8.48181ZM17.5001 23.413C14.2396 23.413 11.5868 20.7606 11.5868 17.5002C11.5868 14.2396 14.2394 11.587 17.5001 11.587C20.7607 11.587 23.4133 14.2396 23.4133 17.5002C23.4133 20.7606 20.7605 23.413 17.5001 23.413Z" fill="white"/>
<path d="M26.8969 5.84863C26.2986 5.84863 25.7109 6.09085 25.2883 6.51525C24.8637 6.93758 24.6196 7.52553 24.6196 8.1259C24.6196 8.72441 24.8639 9.31215 25.2883 9.73656C25.7106 10.1589 26.2986 10.4032 26.8969 10.4032C27.4973 10.4032 28.0832 10.1589 28.5076 9.73656C28.932 9.31215 29.1742 8.72421 29.1742 8.1259C29.1742 7.52553 28.932 6.93758 28.5076 6.51525C28.0852 6.09085 27.4973 5.84863 26.8969 5.84863Z" fill="white"/>
</svg>
