<svg width="35" height="35" viewBox="0 0 35 35" fill="none" xmlns="http://www.w3.org/2000/svg">
<path fill-rule="evenodd" clip-rule="evenodd" d="M29.1066 5.84513C26.0369 2.77176 21.9543 1.07846 17.605 1.07666C8.64287 1.07666 1.34897 8.37035 1.34537 17.3349C1.34417 20.2006 2.09278 22.998 3.51571 25.4637L1.20898 33.8892L9.82848 31.6281C12.2035 32.9236 14.8773 33.6064 17.5984 33.6072H17.6052C26.5664 33.6072 33.8611 26.3129 33.8645 17.3479C33.8663 13.0032 32.1766 8.91829 29.1066 5.84513ZM17.605 30.8612H17.5994C15.1745 30.8602 12.7963 30.2086 10.7211 28.9775L10.2278 28.6845L5.11288 30.0263L6.47813 25.0394L6.1567 24.5281C4.80386 22.3763 4.08949 19.8894 4.09069 17.3359C4.0935 9.8848 10.1561 3.82278 17.6104 3.82278C21.2201 3.82399 24.6133 5.23149 27.1648 7.78596C29.7163 10.3404 31.1206 13.7358 31.1194 17.3469C31.1162 24.7986 25.0539 30.8612 17.605 30.8612ZM25.0179 20.7397C24.6117 20.5362 22.6142 19.5537 22.2417 19.4179C21.8696 19.2823 21.5984 19.2149 21.3279 19.6214C21.0569 20.028 20.2785 20.9432 20.0413 21.2142C19.8042 21.4853 19.5675 21.5194 19.1611 21.3159C18.7548 21.1126 17.4458 20.6834 15.8939 19.2994C14.6863 18.2221 13.871 16.8917 13.6338 16.4852C13.3971 16.0782 13.6318 15.8795 13.8121 15.656C14.2519 15.1099 14.6923 14.5373 14.8277 14.2663C14.9632 13.9952 14.8954 13.7579 14.7936 13.5546C14.6923 13.3513 13.8798 11.3516 13.5413 10.5379C13.2113 9.74602 12.8766 9.85296 12.6271 9.84054C12.3904 9.82873 12.1194 9.82633 11.8484 9.82633C11.5777 9.82633 11.1375 9.92786 10.7649 10.3348C10.3926 10.7416 9.34322 11.7243 9.34322 13.724C9.34322 15.7237 10.799 17.6555 11.0021 17.9267C11.2051 18.1979 13.867 22.3014 17.9423 24.061C18.9116 24.48 19.6682 24.7297 20.2584 24.917C21.2318 25.2262 22.1172 25.1825 22.8173 25.078C23.598 24.9612 25.2208 24.0951 25.5596 23.1462C25.8981 22.1971 25.8981 21.3838 25.7963 21.2142C25.695 21.0447 25.424 20.9432 25.0179 20.7397Z" fill="white"/>
</svg>
